<svg xmlns="http://www.w3.org/2000/svg" viewBox="0 0 192 192"><style>path{fill:#081733}@media (prefers-color-scheme:dark){path{fill:#fff}}</style><path fill-rule="evenodd" d="M167.4 96.53a70.94 70.94 0 11-141.87 0 70.94 70.94 0 01141.87 0zm-132.12 0a61.26 61.26 0 0061.19 61.19 61.26 61.26 0 0061.18-61.19 61.26 61.26 0 00-61.18-61.18 61.26 61.26 0 00-61.19 61.18zm12.56-19.62H74v7.28H56.16v10.56l16.64-1.04v7.38l-16.64 1.04v11.45h-8.32V76.91z"/><path fill-rule="evenodd" d="M78.16 76.91h14.2c8.74 0 16.33 2.03 16.33 10.24 0 6.04-4.89 7.7-9.31 8.22v2.08h5.36c2.86 0 4.42 1.56 4.42 4.43v11.7h-8.32v-12.9H86.48v12.9h-8.32V76.91zm14.2 16.49c4.94 0 8.01 0 8.01-4.58 0-4.63-3.07-4.63-8.01-4.63h-5.88v9.21h5.88zm38.59 20.7c-13.21 0-18.15-5.41-18.15-14.67h8.32c0 5.62 2.81 7.39 10.09 7.39 5.36 0 7.13-1.25 7.13-3.23 0-2.65-4.48-3.85-9.83-5.67-7.75-2.6-14.05-4.68-14.05-11.86 0-6.24 4.94-9.67 14.41-9.67 11.24 0 16.28 5.72 16.28 13h-8.32c0-4.47-3.43-5.72-7.96-5.72-3.74 0-6.08.83-6.08 2.7 0 1.67.88 2.29 6.76 4.27 6.76 2.29 17.11 5.2 17.11 12.85 0 6.29-4.42 10.61-15.71 10.61z"/></svg>