<svg xmlns="http://www.w3.org/2000/svg" viewBox="0 0 91 88"><path d="M45.34-.45a45.34 45.34 0 00-14.33 88.37c2.27.42 3.1-.98 3.1-2.18l-.06-7.72c-12.62 2.74-15.28-6.07-15.28-6.07-2.06-5.24-5.03-6.64-5.03-6.64-4.12-2.81.31-2.75.31-2.75 4.55.32 6.94 4.67 6.94 4.67 4.05 6.93 10.62 4.93 13.2 3.77.41-2.93 1.58-4.93 2.88-6.07C27 63.79 16.42 59.9 16.42 42.52a17.5 17.5 0 014.66-12.16c-.46-1.15-2.02-5.76.45-12.01 0 0 3.8-1.21 12.47 4.65a43.28 43.28 0 0122.7 0c8.66-5.86 12.46-4.65 12.46-4.65 2.47 6.25.92 10.86.45 12.01a17.46 17.46 0 014.66 12.16c0 17.42-10.6 21.26-20.7 22.38 1.63 1.4 3.08 4.17 3.08 8.4 0 6.06-.06 10.95-.06 12.44 0 1.21.82 2.62 3.12 2.18A45.35 45.35 0 0045.34-.45z"/></svg>