<svg xmlns="http://www.w3.org/2000/svg" viewBox="20 102 92 35"><path d="M20.59 102.42h24.14v6.72H28.27v9.74l15.36-.96v6.82l-15.36.96v10.56h-7.68v-33.84zm27.98 0h13.11c8.06 0 15.07 1.87 15.07 9.46 0 5.57-4.51 7.1-8.59 7.58v1.92h4.94c2.64 0 4.08 1.44 4.08 4.08v10.8H69.5v-11.9H56.25v11.9h-7.68v-33.84zm13.11 15.22c4.56 0 7.39 0 7.39-4.23 0-4.27-2.83-4.27-7.39-4.27h-5.43v8.5h5.43zm35.61 19.1c-12.19 0-16.75-4.99-16.75-13.53h7.68c0 5.18 2.59 6.81 9.31 6.81 4.95 0 6.58-1.15 6.58-2.97 0-2.45-4.13-3.56-9.07-5.24-7.16-2.4-12.96-4.32-12.96-10.94 0-5.76 4.56-8.93 13.29-8.93 10.37 0 15.03 5.28 15.03 12h-7.68c0-4.13-3.17-5.28-7.35-5.28-3.45 0-5.61.77-5.61 2.5 0 1.53.81 2.11 6.24 3.93 6.24 2.12 15.79 4.8 15.79 11.86 0 5.81-4.08 9.79-14.5 9.79z"/></svg>