<svg xmlns="http://www.w3.org/2000/svg" xml:space="preserve" viewBox="0 0 283.46 283.46"><linearGradient id="a" x1="88.36" x2="145.23" y1="128.27" y2="78.3" gradientUnits="userSpaceOnUse"><stop offset="0" stop-color="#02bf89"/><stop offset="1" stop-color="#03206c"/></linearGradient><path fill="url(#a)" d="M149.16 96.71v-24.7l-63.13 36.45v24.7z"/><path fill="#063FB4" d="m175.1 86.99-25.94-14.98v24.7l25.94 14.98z"/><linearGradient id="b" x1="215.71" x2="231.61" y1="112.88" y2="138.56" gradientUnits="userSpaceOnUse"><stop offset="0" stop-color="#02bf89"/><stop offset="1" stop-color="#03206c"/></linearGradient><path fill="url(#b)" d="m238.23 123.44-25.95-14.98v24.7l25.95 14.97z"/><path fill="#063FB4" d="M175.1 154.63v-24.7l37.18-21.47v24.7z"/><linearGradient id="c" x1="146.39" x2="193.83" y1="106.1" y2="210.2" gradientUnits="userSpaceOnUse"><stop offset=".26" stop-color="#ff5f49"/><stop offset="1" stop-color="#063fb4"/></linearGradient><path fill="url(#c)" d="m149.16 96.71-63.13 36.45 126.25 72.89 25.95-14.98-37.19-21.47 37.19-21.47-25.95-14.97-37.18 21.47-37.19-21.47 37.19-21.47z"/><linearGradient id="d" x1="225.62" x2="217.53" y1="182.65" y2="162.84" gradientUnits="userSpaceOnUse"><stop offset="0" stop-color="#02bf89"/><stop offset=".52" stop-color="#036c7a"/><stop offset="1" stop-color="#03206c"/></linearGradient><path fill="url(#d)" d="m238.23 191.07-37.19-21.47 21.39-12.35 15.8 9.12z"/><linearGradient id="e" x1="179.66" x2="139.48" y1="138.58" y2="135.79" gradientUnits="userSpaceOnUse"><stop offset=".26" stop-color="#ff5f49"/><stop offset="1" stop-color="#063fb4"/></linearGradient><path fill="url(#e)" d="m175.1 154.63-37.19-21.47 21.39-12.35 15.8 9.12z"/><g fill="#081733"><path d="M94.34 120c23.35 0 42.35 19 42.35 42.35s-19 42.35-42.35 42.35-42.35-19-42.35-42.35S70.99 120 94.34 120m0-6.75a49.1 49.1 0 1 0 0 98.2 49.1 49.1 0 0 0 0-98.2z"/><path d="M60.68 148.77h18.11v5.04H66.44v7.31l11.52-.72v5.11l-11.52.72v7.92h-5.76v-25.38zm20.99 0h9.83c6.05 0 11.3 1.4 11.3 7.09 0 4.18-3.38 5.33-6.44 5.69v1.44h3.71c1.98 0 3.06 1.08 3.06 3.06v8.1h-5.76v-8.93h-9.94v8.93h-5.76v-25.38zm9.83 11.41c3.42 0 5.54 0 5.54-3.17 0-3.2-2.12-3.2-5.54-3.2h-4.07v6.37h4.07zm26.71 14.33c-9.14 0-12.56-3.74-12.56-10.15h5.76c0 3.89 1.94 5.11 6.98 5.11 3.71 0 4.93-.86 4.93-2.23 0-1.84-3.1-2.66-6.8-3.92-5.36-1.8-9.72-3.24-9.72-8.21 0-4.32 3.42-6.7 9.97-6.7 7.78 0 11.27 3.96 11.27 9h-5.76c0-3.1-2.38-3.96-5.51-3.96-2.59 0-4.21.58-4.21 1.87 0 1.15.61 1.58 4.68 2.95 4.68 1.58 11.84 3.6 11.84 8.89 0 4.36-3.06 7.35-10.87 7.35z"/></g></svg>
