<?xml version="1.0" standalone="no"?>
<!DOCTYPE svg PUBLIC "-//W3C//DTD SVG 20010904//EN"
 "http://www.w3.org/TR/2001/REC-SVG-20010904/DTD/svg10.dtd">
<svg version="1.0" xmlns="http://www.w3.org/2000/svg"
 width="192.000000pt" height="192.000000pt" viewBox="0 0 192.000000 192.000000"
 preserveAspectRatio="xMidYMid meet">
<metadata>
Created by potrace 1.14, written by Peter Selinger 2001-2017
</metadata>
<g transform="translate(0.000000,192.000000) scale(0.100000,-0.100000)"
fill="#000000" stroke="none">
<path d="M787 1654 c-114 -27 -278 -121 -342 -196 -142 -163 -192 -290 -194
-490 -1 -97 3 -139 19 -196 70 -251 264 -441 517 -506 78 -20 257 -21 340 -1
214 50 392 199 487 406 13 30 28 68 32 84 4 17 9 37 12 45 2 8 6 72 9 141 4
108 2 138 -16 203 -70 254 -263 444 -518 510 -76 20 -265 20 -346 0z m325 -99
c188 -48 348 -188 418 -366 160 -406 -135 -843 -570 -842 -548 1 -820 663
-431 1050 152 152 374 212 583 158z"/>
<path d="M1249 1159 c-79 -12 -109 -40 -109 -104 0 -31 47 -77 96 -93 108 -37
144 -55 144 -72 0 -22 -24 -31 -78 -32 -50 0 -80 16 -88 47 -5 22 -12 25 -49
25 -38 0 -42 -2 -40 -23 5 -40 34 -86 64 -102 37 -19 134 -27 185 -15 48 11
86 47 90 86 7 61 -26 92 -146 135 -67 24 -88 36 -88 50 0 42 122 31 135 -12 5
-14 16 -19 46 -19 34 0 39 3 39 24 0 27 -32 71 -63 88 -34 18 -87 25 -138 17z"/>
<path d="M470 975 l0 -185 39 0 c43 0 47 5 46 68 0 27 4 42 12 43 7 1 18 3 23
4 6 1 38 3 73 4 l63 1 -4 40 -4 40 -82 -6 -82 -5 0 48 c1 31 6 50 15 54 7 3
46 4 86 3 l73 -1 4 38 4 39 -133 0 -133 0 0 -185z"/>
<path d="M778 1152 c0 -4 -2 -87 -2 -184 l-2 -178 43 0 43 0 0 64 0 65 70 -1
c77 -1 73 4 72 -80 l-1 -48 45 0 44 0 0 68 c0 79 -9 92 -62 92 -48 0 -49 15
-2 30 90 30 70 147 -29 169 -44 10 -217 13 -219 3z m208 -83 c8 -6 14 -20 14
-30 0 -31 -26 -46 -84 -48 l-56 -1 0 48 0 48 56 -3 c31 -1 62 -8 70 -14z"/>
</g>
</svg>
