<svg version="1" xmlns="http://www.w3.org/2000/svg" width="256" height="256" viewBox="0 0 192.000000 192.000000"><path d="M78.7 26.6c-11.4 2.7-27.8 12.1-34.2 19.6-14.2 16.3-19.2 29-19.4 49-.1 9.7.3 13.9 1.9 19.6 7 25.1 26.4 44.1 51.7 50.6 7.8 2 25.7 2.1 34 .1 21.4-5 39.2-19.9 48.7-40.6 1.3-3 2.8-6.8 3.2-8.4.4-1.7.9-3.7 1.2-4.5.2-.8.6-7.2.9-14.1.4-10.8.2-13.8-1.6-20.3-7-25.4-26.3-44.4-51.8-51-7.6-2-26.5-2-34.6 0zm32.5 9.9C130 41.3 146 55.3 153 73.1c16 40.6-13.5 84.3-57 84.2-54.8-.1-82-66.3-43.1-105 15.2-15.2 37.4-21.2 58.3-15.8z"/><path d="M124.9 76.1c-7.9 1.2-10.9 4-10.9 10.4 0 3.1 4.7 7.7 9.6 9.3 10.8 3.7 14.4 5.5 14.4 7.2 0 2.2-2.4 3.1-7.8 3.2-5 0-8-1.6-8.8-4.7-.5-2.2-1.2-2.5-4.9-2.5-3.8 0-4.2.2-4 2.3.5 4 3.4 8.6 6.4 10.2 3.7 1.9 13.4 2.7 18.5 1.5 4.8-1.1 8.6-4.7 9-8.6.7-6.1-2.6-9.2-14.6-13.5-6.7-2.4-8.8-3.6-8.8-5 0-4.2 12.2-3.1 13.5 1.2.5 1.4 1.6 1.9 4.6 1.9 3.4 0 3.9-.3 3.9-2.4 0-2.7-3.2-7.1-6.3-8.8-3.4-1.8-8.7-2.5-13.8-1.7zM47 94.5V113h3.9c4.3 0 4.7-.5 4.6-6.8 0-2.7.4-4.2 1.2-4.3.7-.1 1.8-.3 2.3-.4.6-.1 3.8-.3 7.3-.4l6.3-.1-.4-4-.4-4-8.2.6-8.2.5v-4.8c.1-3.1.6-5 1.5-5.4.7-.3 4.6-.4 8.6-.3l7.3.1.4-3.8.4-3.9H47v18.5zM77.8 76.8c0 .4-.2 8.7-.2 18.4l-.2 17.8H86v-12.9l7 .1c7.7.1 7.3-.4 7.2 8l-.1 4.8h8.9v-6.8c0-7.9-.9-9.2-6.2-9.2-4.8 0-4.9-1.5-.2-3 9-3 7-14.7-2.9-16.9-4.4-1-21.7-1.3-21.9-.3zm20.8 8.3c.8.6 1.4 2 1.4 3 0 3.1-2.6 4.6-8.4 4.8L86 93v-9.6l5.6.3c3.1.1 6.2.8 7 1.4z"/></svg>