<svg xmlns="http://www.w3.org/2000/svg" fill="#020B1A"  viewBox="20 24 700 146"><path fill-rule="evenodd" d="M167.4 96.53a70.94 70.94 0 1 1-141.87 0 70.94 70.94 0 0 1 141.87 0zm-132.12 0a61.26 61.26 0 0 0 61.19 61.19 61.26 61.26 0 0 0 61.18-61.19 61.26 61.26 0 0 0-61.18-61.18 61.26 61.26 0 0 0-61.19 61.18zm12.56-19.62H74v7.28H56.16v10.56l16.64-1.04v7.38l-16.64 1.04v11.45h-8.32V76.91z"/><path fill-rule="evenodd" d="M78.16 76.91h14.2c8.74 0 16.33 2.03 16.33 10.24 0 6.04-4.89 7.7-9.31 8.22v2.08h5.36c2.86 0 4.42 1.56 4.42 4.43v11.7h-8.32v-12.9H86.48v12.9h-8.32V76.91zm14.2 16.49c4.94 0 8.01 0 8.01-4.58 0-4.63-3.07-4.63-8.01-4.63h-5.88v9.21h5.88zm38.59 20.7c-13.21 0-18.15-5.41-18.15-14.67h8.32c0 5.62 2.81 7.39 10.09 7.39 5.36 0 7.13-1.25 7.13-3.23 0-2.65-4.48-3.85-9.83-5.67-7.75-2.6-14.05-4.68-14.05-11.86 0-6.24 4.94-9.67 14.41-9.67 11.24 0 16.28 5.72 16.28 13h-8.32c0-4.47-3.43-5.72-7.96-5.72-3.74 0-6.08.83-6.08 2.7 0 1.67.88 2.29 6.76 4.27 6.76 2.29 17.11 5.2 17.11 12.85 0 6.29-4.42 10.61-15.71 10.61z"/><path d="M568.44 132.46a35.35 35.35 0 0 1-36.58-34.1c-.06-1.05 0-2.1 0-3.1A35.37 35.37 0 0 1 569 58.12c20.21 0 33.54 11.1 35.71 28.96h-16.43a17.66 17.66 0 0 0-19.1-14.57c-12.64 0-20.95 7.93-20.95 22.81 0 15 8.3 22.88 20.96 22.88a17.67 17.67 0 0 0 19.1-14.7h16.42c-2.1 17.74-15.19 28.84-35.09 29.02l-1.18-.06zm-208.32 0c-25.42-.25-34.97-10.85-34.97-28.95h16.43c0 11.1 5.52 14.57 19.9 14.57 10.55 0 14.08-2.48 14.08-6.39 0-5.2-8.8-7.62-19.4-11.16-15.32-5.14-27.72-9.24-27.72-23.37 0-12.34 9.73-19.1 28.4-19.1 22.2 0 32.11 11.29 32.11 25.67h-16.43c0-8.8-6.76-11.28-15.68-11.28-7.38 0-12.03 1.67-12.03 5.33 0 3.28 1.73 4.52 13.33 8.43 13.33 4.53 33.73 10.3 33.73 25.36 0 12.27-8.5 20.7-30.2 20.95l-1.55-.06zm154.2-1.05-6.58-23.19h-29.32l-6.45 23.19h-16.62l20.84-72.36h33.85l20.95 72.36h-16.67zm-31.93-37.57h21.32l-8.61-30.7H491l-8.61 30.7zm-82.22 37.57V59.05h25.98c18.3 0 32.24 3.48 32.24 25.36 0 21.95-13.95 25.42-32.24 25.42h-9.55v21.58h-16.43zm16.43-35.9h10.54c9.74 0 14.76-1.05 14.76-11.1 0-9.92-5.02-10.97-14.76-10.97H416.6V95.5zm-115 35.9v-25.42h-28.34v25.42h-16.43V59.05h28.02c17.24 0 32.24 4.03 32.24 20.22 0 11.9-9.67 15.19-18.35 16.18v4.09h10.54a7.87 7.87 0 0 1 8.74 8.74v23.07H301.6zm-28.34-39.8h11.6c9.73 0 15.8 0 15.8-9.06 0-9.11-6.07-9.11-15.8-9.11h-11.6V91.6zM197 131.4V59.05h51.65v14.39h-35.22v20.83l32.86-2.05v14.57l-32.86 2.05v22.57H197zm417.01 0V59.05h51.59v14.39h-35.22V88h30.07v14.38h-30.07v14.7h35.22v14.38H614z"/></svg>
