<svg xmlns="http://www.w3.org/2000/svg" viewBox="0 0 91 91"><path d="M64.04.58c4.83.22 8.13.99 11.01 2.11a22.26 22.26 0 018.03 5.23 22.26 22.26 0 015.23 8.03c1.12 2.88 1.89 6.18 2.11 11.01.22 4.83.27 6.38.27 18.69 0 12.32-.05 13.86-.27 18.7-.22 4.83-.99 8.12-2.11 11.01a22.26 22.26 0 01-5.23 8.03 22.26 22.26 0 01-8.03 5.23c-2.88 1.12-6.18 1.89-11.01 2.11-4.83.22-6.38.27-18.69.27-12.32 0-13.86-.05-18.7-.27-4.83-.22-8.12-.99-11.01-2.11a22.26 22.26 0 01-8.03-5.23 22.26 22.26 0 01-5.23-8.03C1.26 72.47.49 69.18.27 64.35.05 59.51 0 57.97 0 45.65c0-12.31.05-13.86.27-18.69.22-4.83.99-8.13 2.11-11.01a22.26 22.26 0 015.23-8.03 22.26 22.26 0 018.03-5.23C18.53 1.57 21.82.8 26.65.58c4.84-.22 6.38-.27 18.7-.27 12.31 0 13.86.05 18.69.27zM27.02 8.74c-4.42.2-6.82.94-8.42 1.56a14.19 14.19 0 00-5.21 3.4A13.88 13.88 0 0010 18.91c-.62 1.6-1.36 4-1.57 8.42-.21 4.78-.26 6.22-.26 18.32 0 12.11.05 13.55.26 18.33.21 4.42.95 6.82 1.57 8.42.82 2.11 1.8 3.63 3.39 5.21A14.04 14.04 0 0018.6 81c1.6.63 4 1.36 8.42 1.56 4.78.22 6.22.27 18.33.27 12.1 0 13.54-.05 18.32-.27 4.42-.2 6.82-.93 8.42-1.56 2.12-.82 3.63-1.8 5.21-3.39a14.1 14.1 0 003.4-5.21c.62-1.6 1.35-4 1.56-8.42.21-4.78.26-6.22.26-18.33 0-12.1-.05-13.54-.26-18.32-.21-4.42-.94-6.82-1.56-8.42a14.02 14.02 0 00-3.4-5.21 14.02 14.02 0 00-5.21-3.4c-1.6-.62-4-1.36-8.42-1.56-4.78-.22-6.22-.26-18.32-.26-12.11 0-13.55.04-18.33.26z"/><path d="M68.63 45.65a23.28 23.28 0 11-46.57.01 23.28 23.28 0 0146.57-.01zm-8.17 0a15.12 15.12 0 10-30.23.01 15.12 15.12 0 0030.23-.01zm14.53-24.2a5.44 5.44 0 11-10.88 0 5.44 5.44 0 0110.88 0z"/></svg>