<svg xmlns="http://www.w3.org/2000/svg" viewBox="53 0 205 179"><defs><linearGradient id="grd1" x1="57.49" x2="133.32" y1="75.09" y2="8.46" gradientUnits="userSpaceOnUse"><stop offset="0" stop-color="#02bf89"/><stop offset="1" stop-color="#03206c"/></linearGradient><linearGradient id="grd2" x1="227.29" x2="248.5" y1="54.58" y2="88.81" gradientUnits="userSpaceOnUse"><stop offset="0" stop-color="#02bf89"/><stop offset="1" stop-color="#03206c"/></linearGradient><linearGradient id="grd3" x1="134.86" x2="198.12" y1="45.53" y2="184.33" gradientUnits="userSpaceOnUse"><stop offset="0" stop-color="#ff5f49"/><stop offset=".26" stop-color="#ff5f49"/><stop offset="1" stop-color="#063fb4"/></linearGradient><linearGradient id="grd4" x1="240.51" x2="229.72" y1="147.6" y2="121.18" gradientUnits="userSpaceOnUse"><stop offset="0" stop-color="#02bf89"/><stop offset=".52" stop-color="#036c7a"/><stop offset="1" stop-color="#03206c"/></linearGradient><linearGradient id="grd5" x1="179.23" x2="125.65" y1="88.84" y2="85.12" gradientUnits="userSpaceOnUse"><stop offset="0" stop-color="#ff5f49"/><stop offset=".26" stop-color="#ff5f49"/><stop offset="1" stop-color="#063fb4"/></linearGradient></defs><path fill="url(#grd1)" d="M138.56.08L54.39 48.67V81.6l84.17-48.59V.08z"/><path d="M138.56.08v32.93l34.59 19.97V20.05L138.56.08z" fill="#063fb4"/><path fill="url(#grd2)" d="M222.73 81.6l34.59 19.97V68.64l-34.59-19.97V81.6z"/><path d="M173.15 110.23V77.3l49.58-28.63V81.6l-49.58 28.63z" fill="#063fb4"/><path fill="url(#grd3)" d="M54.39 81.6l168.34 97.2 34.59-19.97v-.01l-49.58-28.62 49.58-28.62v-.01L222.73 81.6l-49.58 28.63-49.58-28.63 49.58-28.62-34.59-19.97L54.39 81.6z"/><path fill="url(#grd4)" d="M207.74 130.2l49.58 28.62v-32.93l-21.06-12.15-28.52 16.46z"/><path fill="url(#grd5)" d="M173.15 110.23L123.57 81.6l28.51-16.46 21.07 12.16v32.93z"/></svg>